<mxfile host="65bd71144e">
    <diagram name="StrÃ¡nka-1" id="PENbiEa-Sz52zW5LNzsi">
        <mxGraphModel dx="2063" dy="449" grid="1" gridSize="10" guides="1" tooltips="1" connect="1" arrows="1" fold="1" page="1" pageScale="1" pageWidth="1169" pageHeight="827" math="0" shadow="0">
            <root>
                <mxCell id="0"/>
                <mxCell id="1" parent="0"/>
                <mxCell id="NrwQYMR0iWpkOQv1hzJ1-1" value="" style="rounded=0;whiteSpace=wrap;html=1;" parent="1" vertex="1">
                    <mxGeometry x="190" y="70" width="760" height="430" as="geometry"/>
                </mxCell>
                <mxCell id="NrwQYMR0iWpkOQv1hzJ1-2" value="" style="rounded=0;whiteSpace=wrap;html=1;" parent="1" vertex="1">
                    <mxGeometry x="210" y="120" width="130" height="140" as="geometry"/>
                </mxCell>
                <mxCell id="NrwQYMR0iWpkOQv1hzJ1-4" value="9:00" style="rounded=0;whiteSpace=wrap;html=1;" parent="1" vertex="1">
                    <mxGeometry x="370" y="120" width="120" height="60" as="geometry"/>
                </mxCell>
                <mxCell id="NrwQYMR0iWpkOQv1hzJ1-5" value="10:00" style="rounded=0;whiteSpace=wrap;html=1;" parent="1" vertex="1">
                    <mxGeometry x="370" y="190" width="120" height="60" as="geometry"/>
                </mxCell>
                <mxCell id="NrwQYMR0iWpkOQv1hzJ1-6" value="11:00" style="rounded=0;whiteSpace=wrap;html=1;" parent="1" vertex="1">
                    <mxGeometry x="370" y="260" width="120" height="60" as="geometry"/>
                </mxCell>
                <mxCell id="NrwQYMR0iWpkOQv1hzJ1-7" value="" style="rounded=0;whiteSpace=wrap;html=1;" parent="1" vertex="1">
                    <mxGeometry x="505" y="120" width="425" height="60" as="geometry"/>
                </mxCell>
                <mxCell id="NrwQYMR0iWpkOQv1hzJ1-8" value="" style="rounded=0;whiteSpace=wrap;html=1;" parent="1" vertex="1">
                    <mxGeometry x="505" y="190" width="425" height="60" as="geometry"/>
                </mxCell>
                <mxCell id="NrwQYMR0iWpkOQv1hzJ1-9" value="" style="rounded=0;whiteSpace=wrap;html=1;" parent="1" vertex="1">
                    <mxGeometry x="505" y="260" width="425" height="60" as="geometry"/>
                </mxCell>
                <mxCell id="NrwQYMR0iWpkOQv1hzJ1-12" value="00" style="text;html=1;strokeColor=none;fillColor=none;align=center;verticalAlign=middle;whiteSpace=wrap;rounded=0;" parent="1" vertex="1">
                    <mxGeometry x="490" y="80" width="60" height="30" as="geometry"/>
                </mxCell>
                <mxCell id="NrwQYMR0iWpkOQv1hzJ1-13" value="50" style="text;html=1;strokeColor=none;fillColor=none;align=center;verticalAlign=middle;whiteSpace=wrap;rounded=0;" parent="1" vertex="1">
                    <mxGeometry x="880" y="80" width="60" height="30" as="geometry"/>
                </mxCell>
                <mxCell id="NrwQYMR0iWpkOQv1hzJ1-14" value="30" style="text;html=1;strokeColor=none;fillColor=none;align=center;verticalAlign=middle;whiteSpace=wrap;rounded=0;" parent="1" vertex="1">
                    <mxGeometry x="687.5" y="80" width="60" height="30" as="geometry"/>
                </mxCell>
                <mxCell id="NrwQYMR0iWpkOQv1hzJ1-15" value="" style="rounded=0;whiteSpace=wrap;html=1;fillColor=#a20025;fontColor=#ffffff;strokeColor=#6F0000;" parent="1" vertex="1">
                    <mxGeometry x="550" y="260" width="120" height="60" as="geometry"/>
                </mxCell>
                <mxCell id="NrwQYMR0iWpkOQv1hzJ1-16" value="" style="rounded=0;whiteSpace=wrap;html=1;fillColor=#a20025;fontColor=#ffffff;strokeColor=#6F0000;" parent="1" vertex="1">
                    <mxGeometry x="747.5" y="190" width="120" height="60" as="geometry"/>
                </mxCell>
                <mxCell id="NrwQYMR0iWpkOQv1hzJ1-17" value="" style="rounded=0;whiteSpace=wrap;html=1;fillColor=#a20025;fontColor=#ffffff;strokeColor=#6F0000;" parent="1" vertex="1">
                    <mxGeometry x="530" y="120" width="120" height="60" as="geometry"/>
                </mxCell>
                <mxCell id="NrwQYMR0iWpkOQv1hzJ1-19" value="" style="rounded=0;whiteSpace=wrap;html=1;fillColor=#1ba1e2;fontColor=#ffffff;strokeColor=#006EAF;" parent="1" vertex="1">
                    <mxGeometry x="720" y="120" width="120" height="60" as="geometry"/>
                </mxCell>
                <mxCell id="NrwQYMR0iWpkOQv1hzJ1-20" value="" style="whiteSpace=wrap;html=1;aspect=fixed;" parent="1" vertex="1">
                    <mxGeometry x="-270" y="470" width="390" height="390" as="geometry"/>
                </mxCell>
                <mxCell id="NrwQYMR0iWpkOQv1hzJ1-22" value="Od kdy" style="rounded=1;whiteSpace=wrap;html=1;" parent="1" vertex="1">
                    <mxGeometry x="-220" y="520" width="280" height="60" as="geometry"/>
                </mxCell>
                <mxCell id="NrwQYMR0iWpkOQv1hzJ1-23" value="Do kdy" style="rounded=1;whiteSpace=wrap;html=1;" parent="1" vertex="1">
                    <mxGeometry x="-220" y="590" width="280" height="60" as="geometry"/>
                </mxCell>
                <mxCell id="NrwQYMR0iWpkOQv1hzJ1-24" value="Email" style="rounded=1;whiteSpace=wrap;html=1;" parent="1" vertex="1">
                    <mxGeometry x="-220" y="680" width="280" height="60" as="geometry"/>
                </mxCell>
                <mxCell id="NrwQYMR0iWpkOQv1hzJ1-25" value="1" style="text;html=1;strokeColor=none;fillColor=none;align=center;verticalAlign=middle;whiteSpace=wrap;rounded=0;" parent="1" vertex="1">
                    <mxGeometry x="200" y="120" width="60" height="30" as="geometry"/>
                </mxCell>
                <mxCell id="NrwQYMR0iWpkOQv1hzJ1-26" value="2" style="text;html=1;strokeColor=none;fillColor=none;align=center;verticalAlign=middle;whiteSpace=wrap;rounded=0;" parent="1" vertex="1">
                    <mxGeometry x="220" y="120" width="60" height="30" as="geometry"/>
                </mxCell>
                <mxCell id="NrwQYMR0iWpkOQv1hzJ1-27" value="3" style="text;html=1;strokeColor=none;fillColor=none;align=center;verticalAlign=middle;whiteSpace=wrap;rounded=0;" parent="1" vertex="1">
                    <mxGeometry x="240" y="120" width="60" height="30" as="geometry"/>
                </mxCell>
                <mxCell id="NrwQYMR0iWpkOQv1hzJ1-29" value="4" style="text;html=1;strokeColor=none;fillColor=none;align=center;verticalAlign=middle;whiteSpace=wrap;rounded=0;" parent="1" vertex="1">
                    <mxGeometry x="260" y="120" width="60" height="30" as="geometry"/>
                </mxCell>
                <mxCell id="NrwQYMR0iWpkOQv1hzJ1-30" value="" style="rounded=0;whiteSpace=wrap;html=1;" parent="1" vertex="1">
                    <mxGeometry x="260" y="630" width="520" height="270" as="geometry"/>
                </mxCell>
                <mxCell id="NrwQYMR0iWpkOQv1hzJ1-32" value="" style="rounded=1;whiteSpace=wrap;html=1;" parent="1" vertex="1">
                    <mxGeometry x="280" y="640" width="480" height="60" as="geometry"/>
                </mxCell>
                <mxCell id="NrwQYMR0iWpkOQv1hzJ1-33" value="" style="rounded=1;whiteSpace=wrap;html=1;" parent="1" vertex="1">
                    <mxGeometry x="280" y="710" width="480" height="60" as="geometry"/>
                </mxCell>
                <mxCell id="NrwQYMR0iWpkOQv1hzJ1-34" value="" style="rounded=1;whiteSpace=wrap;html=1;" parent="1" vertex="1">
                    <mxGeometry x="280" y="777" width="480" height="60" as="geometry"/>
                </mxCell>
                <mxCell id="NrwQYMR0iWpkOQv1hzJ1-35" value="9:00 - 10:14" style="text;html=1;strokeColor=none;fillColor=none;align=center;verticalAlign=middle;whiteSpace=wrap;rounded=0;" parent="1" vertex="1">
                    <mxGeometry x="280" y="650" width="100" height="30" as="geometry"/>
                </mxCell>
                <mxCell id="NrwQYMR0iWpkOQv1hzJ1-37" value="Lecturers" style="swimlane;fontStyle=0;childLayout=stackLayout;horizontal=1;startSize=30;horizontalStack=0;resizeParent=1;resizeParentMax=0;resizeLast=0;collapsible=1;marginBottom=0;whiteSpace=wrap;html=1;" parent="1" vertex="1">
                    <mxGeometry x="460" y="1060" width="140" height="150" as="geometry"/>
                </mxCell>
                <mxCell id="NrwQYMR0iWpkOQv1hzJ1-38" value="name" style="text;strokeColor=none;fillColor=none;align=left;verticalAlign=middle;spacingLeft=4;spacingRight=4;overflow=hidden;points=[[0,0.5],[1,0.5]];portConstraint=eastwest;rotatable=0;whiteSpace=wrap;html=1;" parent="NrwQYMR0iWpkOQv1hzJ1-37" vertex="1">
                    <mxGeometry y="30" width="140" height="30" as="geometry"/>
                </mxCell>
                <mxCell id="NrwQYMR0iWpkOQv1hzJ1-39" value="tags" style="text;strokeColor=none;fillColor=none;align=left;verticalAlign=middle;spacingLeft=4;spacingRight=4;overflow=hidden;points=[[0,0.5],[1,0.5]];portConstraint=eastwest;rotatable=0;whiteSpace=wrap;html=1;" parent="NrwQYMR0iWpkOQv1hzJ1-37" vertex="1">
                    <mxGeometry y="60" width="140" height="30" as="geometry"/>
                </mxCell>
                <mxCell id="NrwQYMR0iWpkOQv1hzJ1-40" value="password hash" style="text;strokeColor=none;fillColor=none;align=left;verticalAlign=middle;spacingLeft=4;spacingRight=4;overflow=hidden;points=[[0,0.5],[1,0.5]];portConstraint=eastwest;rotatable=0;whiteSpace=wrap;html=1;" parent="NrwQYMR0iWpkOQv1hzJ1-37" vertex="1">
                    <mxGeometry y="90" width="140" height="30" as="geometry"/>
                </mxCell>
                <mxCell id="lsWB1fkzQtitz5SIPEUT-13" value="salt" style="text;strokeColor=none;fillColor=none;align=left;verticalAlign=middle;spacingLeft=4;spacingRight=4;overflow=hidden;points=[[0,0.5],[1,0.5]];portConstraint=eastwest;rotatable=0;whiteSpace=wrap;html=1;" parent="NrwQYMR0iWpkOQv1hzJ1-37" vertex="1">
                    <mxGeometry y="120" width="140" height="30" as="geometry"/>
                </mxCell>
                <mxCell id="NrwQYMR0iWpkOQv1hzJ1-41" value="Tags" style="swimlane;fontStyle=0;childLayout=stackLayout;horizontal=1;startSize=30;horizontalStack=0;resizeParent=1;resizeParentMax=0;resizeLast=0;collapsible=1;marginBottom=0;whiteSpace=wrap;html=1;" parent="1" vertex="1">
                    <mxGeometry x="710" y="1060" width="140" height="90" as="geometry"/>
                </mxCell>
                <mxCell id="NrwQYMR0iWpkOQv1hzJ1-42" value="name" style="text;strokeColor=none;fillColor=none;align=left;verticalAlign=middle;spacingLeft=4;spacingRight=4;overflow=hidden;points=[[0,0.5],[1,0.5]];portConstraint=eastwest;rotatable=0;whiteSpace=wrap;html=1;" parent="NrwQYMR0iWpkOQv1hzJ1-41" vertex="1">
                    <mxGeometry y="30" width="140" height="30" as="geometry"/>
                </mxCell>
                <mxCell id="NrwQYMR0iWpkOQv1hzJ1-43" value="uuid" style="text;strokeColor=none;fillColor=none;align=left;verticalAlign=middle;spacingLeft=4;spacingRight=4;overflow=hidden;points=[[0,0.5],[1,0.5]];portConstraint=eastwest;rotatable=0;whiteSpace=wrap;html=1;" parent="NrwQYMR0iWpkOQv1hzJ1-41" vertex="1">
                    <mxGeometry y="60" width="140" height="30" as="geometry"/>
                </mxCell>
                <mxCell id="NrwQYMR0iWpkOQv1hzJ1-45" value="Reservations" style="swimlane;fontStyle=0;childLayout=stackLayout;horizontal=1;startSize=30;horizontalStack=0;resizeParent=1;resizeParentMax=0;resizeLast=0;collapsible=1;marginBottom=0;whiteSpace=wrap;html=1;" parent="1" vertex="1">
                    <mxGeometry x="547.5" y="1230" width="140" height="180" as="geometry"/>
                </mxCell>
                <mxCell id="NrwQYMR0iWpkOQv1hzJ1-46" value="start date time" style="text;strokeColor=none;fillColor=none;align=left;verticalAlign=middle;spacingLeft=4;spacingRight=4;overflow=hidden;points=[[0,0.5],[1,0.5]];portConstraint=eastwest;rotatable=0;whiteSpace=wrap;html=1;" parent="NrwQYMR0iWpkOQv1hzJ1-45" vertex="1">
                    <mxGeometry y="30" width="140" height="30" as="geometry"/>
                </mxCell>
                <mxCell id="NrwQYMR0iWpkOQv1hzJ1-47" value="end date time" style="text;strokeColor=none;fillColor=none;align=left;verticalAlign=middle;spacingLeft=4;spacingRight=4;overflow=hidden;points=[[0,0.5],[1,0.5]];portConstraint=eastwest;rotatable=0;whiteSpace=wrap;html=1;" parent="NrwQYMR0iWpkOQv1hzJ1-45" vertex="1">
                    <mxGeometry y="60" width="140" height="30" as="geometry"/>
                </mxCell>
                <mxCell id="NrwQYMR0iWpkOQv1hzJ1-48" value="lecturer" style="text;strokeColor=none;fillColor=none;align=left;verticalAlign=middle;spacingLeft=4;spacingRight=4;overflow=hidden;points=[[0,0.5],[1,0.5]];portConstraint=eastwest;rotatable=0;whiteSpace=wrap;html=1;" parent="NrwQYMR0iWpkOQv1hzJ1-45" vertex="1">
                    <mxGeometry y="90" width="140" height="30" as="geometry"/>
                </mxCell>
                <mxCell id="NrwQYMR0iWpkOQv1hzJ1-50" value="email" style="text;strokeColor=none;fillColor=none;align=left;verticalAlign=middle;spacingLeft=4;spacingRight=4;overflow=hidden;points=[[0,0.5],[1,0.5]];portConstraint=eastwest;rotatable=0;whiteSpace=wrap;html=1;" parent="NrwQYMR0iWpkOQv1hzJ1-45" vertex="1">
                    <mxGeometry y="120" width="140" height="30" as="geometry"/>
                </mxCell>
                <mxCell id="NrwQYMR0iWpkOQv1hzJ1-51" value="name student" style="text;strokeColor=none;fillColor=none;align=left;verticalAlign=middle;spacingLeft=4;spacingRight=4;overflow=hidden;points=[[0,0.5],[1,0.5]];portConstraint=eastwest;rotatable=0;whiteSpace=wrap;html=1;" parent="NrwQYMR0iWpkOQv1hzJ1-45" vertex="1">
                    <mxGeometry y="150" width="140" height="30" as="geometry"/>
                </mxCell>
                <mxCell id="NrwQYMR0iWpkOQv1hzJ1-49" style="edgeStyle=orthogonalEdgeStyle;rounded=0;orthogonalLoop=1;jettySize=auto;html=1;entryX=0;entryY=0;entryDx=0;entryDy=0;" parent="1" source="NrwQYMR0iWpkOQv1hzJ1-48" target="NrwQYMR0iWpkOQv1hzJ1-37" edge="1">
                    <mxGeometry relative="1" as="geometry">
                        <mxPoint x="450" y="1220" as="targetPoint"/>
                        <Array as="points">
                            <mxPoint x="440" y="1335"/>
                            <mxPoint x="440" y="1060"/>
                        </Array>
                    </mxGeometry>
                </mxCell>
                <mxCell id="NrwQYMR0iWpkOQv1hzJ1-52" value="&lt;font style=&quot;font-size: 18px;&quot;&gt;SELECT * FROM reservations WHERE lecturer = &quot;id&quot;;&lt;/font&gt;" style="text;html=1;strokeColor=none;fillColor=none;align=center;verticalAlign=middle;whiteSpace=wrap;rounded=0;strokeWidth=4;" parent="1" vertex="1">
                    <mxGeometry x="730" y="1250" width="340" height="70" as="geometry"/>
                </mxCell>
                <mxCell id="NrwQYMR0iWpkOQv1hzJ1-58" value="Default free times" style="swimlane;fontStyle=0;childLayout=stackLayout;horizontal=1;startSize=30;horizontalStack=0;resizeParent=1;resizeParentMax=0;resizeLast=0;collapsible=1;marginBottom=0;whiteSpace=wrap;html=1;" parent="1" vertex="1">
                    <mxGeometry x="205" y="1140" width="140" height="120" as="geometry"/>
                </mxCell>
                <mxCell id="lsWB1fkzQtitz5SIPEUT-1" value="lecturer" style="text;strokeColor=none;fillColor=none;align=left;verticalAlign=middle;spacingLeft=4;spacingRight=4;overflow=hidden;points=[[0,0.5],[1,0.5]];portConstraint=eastwest;rotatable=0;whiteSpace=wrap;html=1;" parent="NrwQYMR0iWpkOQv1hzJ1-58" vertex="1">
                    <mxGeometry y="30" width="140" height="30" as="geometry"/>
                </mxCell>
                <mxCell id="lsWB1fkzQtitz5SIPEUT-3" value="start time" style="text;strokeColor=none;fillColor=none;align=left;verticalAlign=middle;spacingLeft=4;spacingRight=4;overflow=hidden;points=[[0,0.5],[1,0.5]];portConstraint=eastwest;rotatable=0;whiteSpace=wrap;html=1;" parent="NrwQYMR0iWpkOQv1hzJ1-58" vertex="1">
                    <mxGeometry y="60" width="140" height="30" as="geometry"/>
                </mxCell>
                <mxCell id="lsWB1fkzQtitz5SIPEUT-4" value="end time" style="text;strokeColor=none;fillColor=none;align=left;verticalAlign=middle;spacingLeft=4;spacingRight=4;overflow=hidden;points=[[0,0.5],[1,0.5]];portConstraint=eastwest;rotatable=0;whiteSpace=wrap;html=1;" parent="NrwQYMR0iWpkOQv1hzJ1-58" vertex="1">
                    <mxGeometry y="90" width="140" height="30" as="geometry"/>
                </mxCell>
                <mxCell id="lsWB1fkzQtitz5SIPEUT-2" style="edgeStyle=orthogonalEdgeStyle;rounded=0;orthogonalLoop=1;jettySize=auto;html=1;entryX=0;entryY=0;entryDx=0;entryDy=0;" parent="1" source="NrwQYMR0iWpkOQv1hzJ1-39" target="NrwQYMR0iWpkOQv1hzJ1-41" edge="1">
                    <mxGeometry relative="1" as="geometry">
                        <Array as="points">
                            <mxPoint x="655" y="1135"/>
                            <mxPoint x="655" y="1060"/>
                        </Array>
                    </mxGeometry>
                </mxCell>
                <mxCell id="lsWB1fkzQtitz5SIPEUT-7" value="Students" style="swimlane;fontStyle=0;childLayout=stackLayout;horizontal=1;startSize=30;horizontalStack=0;resizeParent=1;resizeParentMax=0;resizeLast=0;collapsible=1;marginBottom=0;whiteSpace=wrap;html=1;" parent="1" vertex="1">
                    <mxGeometry x="780" y="1380" width="140" height="120" as="geometry"/>
                </mxCell>
                <mxCell id="lsWB1fkzQtitz5SIPEUT-8" value="Item 1" style="text;strokeColor=none;fillColor=none;align=left;verticalAlign=middle;spacingLeft=4;spacingRight=4;overflow=hidden;points=[[0,0.5],[1,0.5]];portConstraint=eastwest;rotatable=0;whiteSpace=wrap;html=1;" parent="lsWB1fkzQtitz5SIPEUT-7" vertex="1">
                    <mxGeometry y="30" width="140" height="30" as="geometry"/>
                </mxCell>
                <mxCell id="lsWB1fkzQtitz5SIPEUT-9" value="Item 2" style="text;strokeColor=none;fillColor=none;align=left;verticalAlign=middle;spacingLeft=4;spacingRight=4;overflow=hidden;points=[[0,0.5],[1,0.5]];portConstraint=eastwest;rotatable=0;whiteSpace=wrap;html=1;" parent="lsWB1fkzQtitz5SIPEUT-7" vertex="1">
                    <mxGeometry y="60" width="140" height="30" as="geometry"/>
                </mxCell>
                <mxCell id="lsWB1fkzQtitz5SIPEUT-10" value="Item 3" style="text;strokeColor=none;fillColor=none;align=left;verticalAlign=middle;spacingLeft=4;spacingRight=4;overflow=hidden;points=[[0,0.5],[1,0.5]];portConstraint=eastwest;rotatable=0;whiteSpace=wrap;html=1;" parent="lsWB1fkzQtitz5SIPEUT-7" vertex="1">
                    <mxGeometry y="90" width="140" height="30" as="geometry"/>
                </mxCell>
                <mxCell id="lsWB1fkzQtitz5SIPEUT-11" value="" style="rounded=0;whiteSpace=wrap;html=1;fillColor=#60a917;fontColor=#ffffff;strokeColor=#2D7600;" parent="1" vertex="1">
                    <mxGeometry x="520" y="190" width="290" height="60" as="geometry"/>
                </mxCell>
                <mxCell id="lsWB1fkzQtitz5SIPEUT-12" value="" style="rounded=0;whiteSpace=wrap;html=1;" parent="1" vertex="1">
                    <mxGeometry x="640" y="190" width="70" height="60" as="geometry"/>
                </mxCell>
                <mxCell id="lsWB1fkzQtitz5SIPEUT-14" value="Frontend" style="rounded=0;whiteSpace=wrap;html=1;" parent="1" vertex="1">
                    <mxGeometry x="60" y="970" width="120" height="60" as="geometry"/>
                </mxCell>
                <mxCell id="lsWB1fkzQtitz5SIPEUT-16" style="edgeStyle=orthogonalEdgeStyle;rounded=0;orthogonalLoop=1;jettySize=auto;html=1;entryX=0;entryY=0.5;entryDx=0;entryDy=0;" parent="1" source="lsWB1fkzQtitz5SIPEUT-15" target="lsWB1fkzQtitz5SIPEUT-17" edge="1">
                    <mxGeometry relative="1" as="geometry">
                        <mxPoint x="330" y="1045" as="targetPoint"/>
                    </mxGeometry>
                </mxCell>
                <mxCell id="lsWB1fkzQtitz5SIPEUT-19" value="https" style="edgeLabel;html=1;align=center;verticalAlign=middle;resizable=0;points=[];" parent="lsWB1fkzQtitz5SIPEUT-16" vertex="1" connectable="0">
                    <mxGeometry x="0.0067" y="2" relative="1" as="geometry">
                        <mxPoint x="22" y="-16" as="offset"/>
                    </mxGeometry>
                </mxCell>
                <mxCell id="lsWB1fkzQtitz5SIPEUT-15" value="Heslo" style="text;html=1;strokeColor=none;fillColor=none;align=center;verticalAlign=middle;whiteSpace=wrap;rounded=0;" parent="1" vertex="1">
                    <mxGeometry x="60" y="1030" width="60" height="30" as="geometry"/>
                </mxCell>
                <mxCell id="lsWB1fkzQtitz5SIPEUT-17" value="Backend" style="rounded=0;whiteSpace=wrap;html=1;" parent="1" vertex="1">
                    <mxGeometry x="300" y="960" width="120" height="60" as="geometry"/>
                </mxCell>
                <mxCell id="lsWB1fkzQtitz5SIPEUT-18" value="username" style="text;html=1;strokeColor=none;fillColor=none;align=center;verticalAlign=middle;whiteSpace=wrap;rounded=0;" parent="1" vertex="1">
                    <mxGeometry x="60" y="1050" width="60" height="30" as="geometry"/>
                </mxCell>
                <mxCell id="lsWB1fkzQtitz5SIPEUT-20" value="POST" style="text;html=1;strokeColor=none;fillColor=none;align=center;verticalAlign=middle;whiteSpace=wrap;rounded=0;" parent="1" vertex="1">
                    <mxGeometry x="190" y="950" width="60" height="30" as="geometry"/>
                </mxCell>
                <mxCell id="lsWB1fkzQtitz5SIPEUT-21" value="Email" style="ellipse;whiteSpace=wrap;html=1;aspect=fixed;" parent="1" vertex="1">
                    <mxGeometry x="490" y="950" width="80" height="80" as="geometry"/>
                </mxCell>
                <mxCell id="lsWB1fkzQtitz5SIPEUT-22" value="+ omezenÃ­ (napÅ. limit mailÅ¯ na den)" style="text;html=1;strokeColor=none;fillColor=none;align=center;verticalAlign=middle;whiteSpace=wrap;rounded=0;" parent="1" vertex="1">
                    <mxGeometry x="570" y="950" width="120" height="60" as="geometry"/>
                </mxCell>
                <mxCell id="2" style="edgeStyle=none;html=1;entryX=0;entryY=0;entryDx=0;entryDy=0;rounded=0;" edge="1" parent="1" source="lsWB1fkzQtitz5SIPEUT-1" target="NrwQYMR0iWpkOQv1hzJ1-37">
                    <mxGeometry relative="1" as="geometry">
                        <Array as="points">
                            <mxPoint x="390" y="1185"/>
                            <mxPoint x="390" y="1060"/>
                        </Array>
                    </mxGeometry>
                </mxCell>
            </root>
        </mxGraphModel>
    </diagram>
</mxfile>